# xmcd
#
# Track frame offsets:
#	150
#	10904
#	23049
#	33672
#	46420
#	59817
#	69604
#	78087
#	87492
#	100088
#	113856
#	127099
#	138176
#	149457
#	162960
#	175940
#	188472
#	200075
#	212775
#	221345
#	233931
#	246523
#	257206
#	270572
#	281012
#	292427
#	304594
#	317948
#	328119
#	342152
#
# Disc length: 4746 seconds
#
# Revision: 0
# Processed by: cddbd v1.5.2PL0 Copyright (c) Steve Scherf et al.
# Submitted via: audiograbber 1.83.01
#
DISCID=d812881e
DTITLE=—борник - Ponytails, Hooped Skirts and Bobbysox- Americans Gals Of The '50
DTITLE=s CD1
DYEAR=1900
DGENRE=
TTITLE0=Rosemary Clooney - This Ole House
TTITLE1=Jo Stafford - Make Love To Me!
TTITLE2=Gale Storm - I Hear You Knocking
TTITLE3=Brenda Lee - Ain't That Love
TTITLE4=Kay Starr - Rock And Roll Waltz
TTITLE5=Georgia Gibbs - Seven Lonely Days
TTITLE6=Jill Corey - Love Me To Pieces
TTITLE7=Doris Day - Whatever Will Be, Will Be (Que Sera, Sera)
TTITLE8=Rosemary Clooney - Half As Much
TTITLE9=Patti Page - The Tennessee Waltz
TTITLE10=The Fontane Sisters - Cold, Cold Heart
TTITLE11=Georgia Gibbs - Kiss Of Fire
TTITLE12=Teresa Brewer - Let Me Go, Lover!
TTITLE13=Kitty Kallen - Little Things Mean A Lot
TTITLE14=Joni James - Why Don't You Believe Me
TTITLE15=Julie London - Cry Me A River
TTITLE16=Mindy Carson - Wake The Town And Tell The People
TTITLE17=The DeCastro Sisters - Teach Me Tonight
TTITLE18=Patience and Prudence - Tonight You Belong To Me
TTITLE19=The Chordettes - Born To Be With You
TTITLE20=The Sheperd Sisters - Alone
TTITLE21=The Fontane Sisters - Eddie My Love
TTITLE22=The McGuire Sisters - Sincerely
TTITLE23=Georgia Gibbs - Dance With Me Henry (Wallflower)
TTITLE24=Patti Page - Cross Over The Bridge
TTITLE25=Teresa Brewer - Ricochet (Rick-O-Shay)
TTITLE26=Gogi Grant - The Wayward Wind
TTITLE27=Doris Day - Love Me Or Leave Me
TTITLE28=Debbie Reynolds - Tammy
TTITLE29=Jo Stafford - You Belong To Me
EXTD=
EXTT0=
EXTT1=
EXTT2=
EXTT3=
EXTT4=
EXTT5=
EXTT6=
EXTT7=
EXTT8=
EXTT9=
EXTT10=
EXTT11=
EXTT12=
EXTT13=
EXTT14=
EXTT15=
EXTT16=
EXTT17=
EXTT18=
EXTT19=
EXTT20=
EXTT21=
EXTT22=
EXTT23=
EXTT24=
EXTT25=
EXTT26=
EXTT27=
EXTT28=
EXTT29=
PLAYORDER=
